# xmcd
#
# Track frame offsets: 
#        150
#        19228
#        32461
#        43714
#        55990
#        74520
#        89778
#        102392
#        114126
#        126196
#        143098
#        160728
#
# Disc length: 2303 seconds
#
# Revision: 0
# Processed by: cddbd v1.5.1PL0 Copyright (c) Steve Scherf et al.
# Submitted via: ExactAudioCopy v0.90b4
#
DISCID=a308fd0c
DTITLE=The Blind Corn Liquor Pickers - The Blind Corn Liquor Pickers
DYEAR=2004
DGENRE=Bluegrass
TTITLE0=Europe On 15  Bucks a Day
TTITLE1=Field Cred
TTITLE2=Chug-A-Lug
TTITLE3=Puttin Up Hay
TTITLE4=Post Office Blues
TTITLE5=Monster and the Banjo
TTITLE6=Sweet Heaven When I Die
TTITLE7=Round Back of the Barn
TTITLE8=Don't Let Your Deal Go Down
TTITLE9=The Ballad of Cornbread Moses
TTITLE10=SCAT
TTITLE11=Sittin' on Top of the World
EXTD=
EXTT0=
EXTT1=
EXTT2=
EXTT3=
EXTT4=
EXTT5=
EXTT6=
EXTT7=
EXTT8=
EXTT9=
EXTT10=
EXTT11=
PLAYORDER=
